<mxfile host="Electron" agent="Mozilla/5.0 (X11; Linux x86_64) AppleWebKit/537.36 (KHTML, like Gecko) draw.io/24.7.8 Chrome/128.0.6613.36 Electron/32.0.1 Safari/537.36" version="24.7.8">
  <diagram name="Page-1" id="_JZT5JnoTkvcQPtU1PSP">
    <mxGraphModel dx="2274" dy="1975" grid="1" gridSize="10" guides="1" tooltips="1" connect="1" arrows="1" fold="1" page="1" pageScale="1" pageWidth="850" pageHeight="1100" math="0" shadow="0">
      <root>
        <mxCell id="0" />
        <mxCell id="1" parent="0" />
        <mxCell id="T6qtZTFMgPrJZFWfyIdF-3" style="edgeStyle=orthogonalEdgeStyle;rounded=0;orthogonalLoop=1;jettySize=auto;html=1;" parent="1" source="T6qtZTFMgPrJZFWfyIdF-1" target="T6qtZTFMgPrJZFWfyIdF-2" edge="1">
          <mxGeometry relative="1" as="geometry" />
        </mxCell>
        <mxCell id="T6qtZTFMgPrJZFWfyIdF-27" style="edgeStyle=orthogonalEdgeStyle;rounded=0;orthogonalLoop=1;jettySize=auto;html=1;entryX=0.5;entryY=1;entryDx=0;entryDy=0;" parent="1" source="T6qtZTFMgPrJZFWfyIdF-1" target="T6qtZTFMgPrJZFWfyIdF-26" edge="1">
          <mxGeometry relative="1" as="geometry" />
        </mxCell>
        <mxCell id="T6qtZTFMgPrJZFWfyIdF-34" style="edgeStyle=orthogonalEdgeStyle;rounded=0;orthogonalLoop=1;jettySize=auto;html=1;" parent="1" source="T6qtZTFMgPrJZFWfyIdF-1" target="T6qtZTFMgPrJZFWfyIdF-33" edge="1">
          <mxGeometry relative="1" as="geometry" />
        </mxCell>
        <mxCell id="T6qtZTFMgPrJZFWfyIdF-1" value="si:shapeIndex" style="ellipse;whiteSpace=wrap;html=1;aspect=fixed;fillColor=#f8cecc;strokeColor=#b85450;" parent="1" vertex="1">
          <mxGeometry x="120" y="120" width="80" height="80" as="geometry" />
        </mxCell>
        <mxCell id="5tv7Jn4kMO8vfNmnEIEy-8" style="edgeStyle=orthogonalEdgeStyle;rounded=0;orthogonalLoop=1;jettySize=auto;html=1;" parent="1" source="T6qtZTFMgPrJZFWfyIdF-2" target="5tv7Jn4kMO8vfNmnEIEy-7" edge="1">
          <mxGeometry relative="1" as="geometry" />
        </mxCell>
        <mxCell id="T6qtZTFMgPrJZFWfyIdF-2" value="si:entry" style="ellipse;whiteSpace=wrap;html=1;aspect=fixed;fillColor=#ffe6cc;strokeColor=#d79b00;" parent="1" vertex="1">
          <mxGeometry x="320" y="120" width="80" height="80" as="geometry" />
        </mxCell>
        <mxCell id="5tv7Jn4kMO8vfNmnEIEy-22" style="edgeStyle=orthogonalEdgeStyle;rounded=0;orthogonalLoop=1;jettySize=auto;html=1;entryX=1;entryY=0.5;entryDx=0;entryDy=0;" parent="1" source="T6qtZTFMgPrJZFWfyIdF-4" target="5tv7Jn4kMO8vfNmnEIEy-18" edge="1">
          <mxGeometry relative="1" as="geometry" />
        </mxCell>
        <mxCell id="T6qtZTFMgPrJZFWfyIdF-4" value="si:subweb" style="ellipse;whiteSpace=wrap;html=1;aspect=fixed;fillColor=#ffe6cc;strokeColor=#d79b00;flipH=1;" parent="1" vertex="1">
          <mxGeometry x="137.5" y="400" width="80" height="80" as="geometry" />
        </mxCell>
        <mxCell id="5tv7Jn4kMO8vfNmnEIEy-4" style="edgeStyle=orthogonalEdgeStyle;rounded=0;orthogonalLoop=1;jettySize=auto;html=1;" parent="1" source="T6qtZTFMgPrJZFWfyIdF-5" target="5tv7Jn4kMO8vfNmnEIEy-3" edge="1">
          <mxGeometry relative="1" as="geometry" />
        </mxCell>
        <mxCell id="T6qtZTFMgPrJZFWfyIdF-5" value="si:shape" style="ellipse;whiteSpace=wrap;html=1;aspect=fixed;fillColor=#ffe6cc;strokeColor=#d79b00;" parent="1" vertex="1">
          <mxGeometry x="502.5" y="400" width="80" height="80" as="geometry" />
        </mxCell>
        <mxCell id="T6qtZTFMgPrJZFWfyIdF-8" value="1" style="text;html=1;align=center;verticalAlign=middle;resizable=0;points=[];autosize=1;strokeColor=none;fillColor=none;" parent="1" vertex="1">
          <mxGeometry x="200" y="158" width="30" height="30" as="geometry" />
        </mxCell>
        <mxCell id="T6qtZTFMgPrJZFWfyIdF-9" value="*" style="text;html=1;align=center;verticalAlign=middle;resizable=0;points=[];autosize=1;strokeColor=none;fillColor=none;" parent="1" vertex="1">
          <mxGeometry x="285" y="128" width="30" height="30" as="geometry" />
        </mxCell>
        <mxCell id="T6qtZTFMgPrJZFWfyIdF-13" value="Shape document" style="whiteSpace=wrap;html=1;aspect=fixed;" parent="1" vertex="1">
          <mxGeometry x="560" y="550" width="80" height="80" as="geometry" />
        </mxCell>
        <mxCell id="T6qtZTFMgPrJZFWfyIdF-14" value="RDF document" style="whiteSpace=wrap;html=1;aspect=fixed;" parent="1" vertex="1">
          <mxGeometry x="-15" y="320" width="80" height="80" as="geometry" />
        </mxCell>
        <mxCell id="T6qtZTFMgPrJZFWfyIdF-21" value="RDF document" style="whiteSpace=wrap;html=1;aspect=fixed;" parent="1" vertex="1">
          <mxGeometry x="-5" y="330" width="80" height="80" as="geometry" />
        </mxCell>
        <mxCell id="T6qtZTFMgPrJZFWfyIdF-22" value="RDF document" style="whiteSpace=wrap;html=1;aspect=fixed;" parent="1" vertex="1">
          <mxGeometry x="5" y="340" width="80" height="80" as="geometry" />
        </mxCell>
        <mxCell id="T6qtZTFMgPrJZFWfyIdF-38" style="edgeStyle=orthogonalEdgeStyle;rounded=0;orthogonalLoop=1;jettySize=auto;html=1;" parent="1" source="T6qtZTFMgPrJZFWfyIdF-23" target="T6qtZTFMgPrJZFWfyIdF-37" edge="1">
          <mxGeometry relative="1" as="geometry" />
        </mxCell>
        <mxCell id="T6qtZTFMgPrJZFWfyIdF-23" value="si:exclude" style="ellipse;whiteSpace=wrap;html=1;aspect=fixed;fillColor=#ffe6cc;strokeColor=#d79b00;" parent="1" vertex="1">
          <mxGeometry x="320.5" y="400" width="80" height="80" as="geometry" />
        </mxCell>
        <mxCell id="T6qtZTFMgPrJZFWfyIdF-31" style="edgeStyle=orthogonalEdgeStyle;rounded=0;orthogonalLoop=1;jettySize=auto;html=1;" parent="1" source="T6qtZTFMgPrJZFWfyIdF-26" target="T6qtZTFMgPrJZFWfyIdF-30" edge="1">
          <mxGeometry relative="1" as="geometry" />
        </mxCell>
        <mxCell id="T6qtZTFMgPrJZFWfyIdF-26" value="si:complete" style="ellipse;whiteSpace=wrap;html=1;aspect=fixed;fillColor=#ffe6cc;strokeColor=#d79b00;" parent="1" vertex="1">
          <mxGeometry x="120" y="-30" width="80" height="80" as="geometry" />
        </mxCell>
        <mxCell id="T6qtZTFMgPrJZFWfyIdF-30" value="xsd:boolean" style="ellipse;whiteSpace=wrap;html=1;aspect=fixed;fillColor=#dae8fc;strokeColor=#6c8ebf;" parent="1" vertex="1">
          <mxGeometry x="250" y="-30" width="80" height="80" as="geometry" />
        </mxCell>
        <mxCell id="T6qtZTFMgPrJZFWfyIdF-44" style="edgeStyle=orthogonalEdgeStyle;rounded=0;orthogonalLoop=1;jettySize=auto;html=1;" parent="1" source="T6qtZTFMgPrJZFWfyIdF-33" target="T6qtZTFMgPrJZFWfyIdF-43" edge="1">
          <mxGeometry relative="1" as="geometry" />
        </mxCell>
        <mxCell id="T6qtZTFMgPrJZFWfyIdF-33" value="si:subweb" style="ellipse;whiteSpace=wrap;html=1;aspect=fixed;fillColor=#ffe6cc;strokeColor=#d79b00;" parent="1" vertex="1">
          <mxGeometry x="-30" y="120" width="80" height="80" as="geometry" />
        </mxCell>
        <mxCell id="T6qtZTFMgPrJZFWfyIdF-35" value="1" style="text;html=1;align=center;verticalAlign=middle;resizable=0;points=[];autosize=1;strokeColor=none;fillColor=none;" parent="1" vertex="1">
          <mxGeometry x="95" y="170" width="30" height="30" as="geometry" />
        </mxCell>
        <mxCell id="T6qtZTFMgPrJZFWfyIdF-36" value="1..*" style="text;html=1;align=center;verticalAlign=middle;resizable=0;points=[];autosize=1;strokeColor=none;fillColor=none;" parent="1" vertex="1">
          <mxGeometry x="45" y="120" width="40" height="30" as="geometry" />
        </mxCell>
        <mxCell id="T6qtZTFMgPrJZFWfyIdF-37" value="xsd:boolean" style="ellipse;whiteSpace=wrap;html=1;aspect=fixed;fillColor=#dae8fc;strokeColor=#6c8ebf;" parent="1" vertex="1">
          <mxGeometry x="320" y="510" width="80" height="80" as="geometry" />
        </mxCell>
        <mxCell id="T6qtZTFMgPrJZFWfyIdF-39" value="IRI" style="ellipse;whiteSpace=wrap;html=1;aspect=fixed;fillColor=#dae8fc;strokeColor=#6c8ebf;" parent="1" vertex="1">
          <mxGeometry x="-270" y="17.5" width="80" height="80" as="geometry" />
        </mxCell>
        <mxCell id="T6qtZTFMgPrJZFWfyIdF-40" value="xsd:string" style="ellipse;whiteSpace=wrap;html=1;aspect=fixed;fillColor=#dae8fc;strokeColor=#6c8ebf;" parent="1" vertex="1">
          <mxGeometry x="-270" y="222.5" width="80" height="80" as="geometry" />
        </mxCell>
        <mxCell id="T6qtZTFMgPrJZFWfyIdF-43" value="&lt;b&gt;OR&lt;/b&gt;" style="rhombus;whiteSpace=wrap;html=1;" parent="1" vertex="1">
          <mxGeometry x="-160" y="120.5" width="80" height="80" as="geometry" />
        </mxCell>
        <mxCell id="T6qtZTFMgPrJZFWfyIdF-54" value="&lt;h1 style=&quot;margin-top: 0px;&quot;&gt;&lt;span style=&quot;background-color: initial; font-size: 12px; font-weight: normal;&quot;&gt;MUST be a valid&amp;nbsp;&lt;/span&gt;&lt;span style=&quot;background-color: initial; font-size: 12px; font-weight: normal;&quot;&gt;URI Template&lt;/span&gt;&lt;/h1&gt;" style="text;html=1;whiteSpace=wrap;overflow=hidden;rounded=0;" parent="1" vertex="1">
          <mxGeometry x="-400" y="260" width="140" height="80" as="geometry" />
        </mxCell>
        <mxCell id="T6qtZTFMgPrJZFWfyIdF-55" value="" style="endArrow=classic;html=1;rounded=0;entryX=1;entryY=1;entryDx=0;entryDy=0;exitX=0;exitY=0;exitDx=0;exitDy=0;" parent="1" source="T6qtZTFMgPrJZFWfyIdF-43" target="T6qtZTFMgPrJZFWfyIdF-39" edge="1">
          <mxGeometry width="50" height="50" relative="1" as="geometry">
            <mxPoint x="-80" y="150" as="sourcePoint" />
            <mxPoint x="-30" y="100" as="targetPoint" />
          </mxGeometry>
        </mxCell>
        <mxCell id="T6qtZTFMgPrJZFWfyIdF-56" value="" style="endArrow=classic;html=1;rounded=0;exitX=0;exitY=1;exitDx=0;exitDy=0;entryX=1;entryY=0;entryDx=0;entryDy=0;" parent="1" source="T6qtZTFMgPrJZFWfyIdF-43" target="T6qtZTFMgPrJZFWfyIdF-40" edge="1">
          <mxGeometry width="50" height="50" relative="1" as="geometry">
            <mxPoint x="-80" y="150" as="sourcePoint" />
            <mxPoint x="-30" y="100" as="targetPoint" />
          </mxGeometry>
        </mxCell>
        <mxCell id="6PYYxKZ_XRir4Kuf4Ip_-1" value="0..1" style="text;html=1;align=center;verticalAlign=middle;whiteSpace=wrap;rounded=0;" parent="1" vertex="1">
          <mxGeometry x="160" y="42.5" width="60" height="30" as="geometry" />
        </mxCell>
        <mxCell id="6PYYxKZ_XRir4Kuf4Ip_-2" value="1" style="text;html=1;align=center;verticalAlign=middle;resizable=0;points=[];autosize=1;strokeColor=none;fillColor=none;" parent="1" vertex="1">
          <mxGeometry x="120" y="90" width="30" height="30" as="geometry" />
        </mxCell>
        <mxCell id="5tv7Jn4kMO8vfNmnEIEy-3" value="IRI" style="ellipse;whiteSpace=wrap;html=1;aspect=fixed;fillColor=#dae8fc;strokeColor=#6c8ebf;" parent="1" vertex="1">
          <mxGeometry x="502.5" y="510" width="80" height="80" as="geometry" />
        </mxCell>
        <mxCell id="5tv7Jn4kMO8vfNmnEIEy-7" value="si:Entry" style="ellipse;whiteSpace=wrap;html=1;aspect=fixed;fillColor=#f8cecc;strokeColor=#b85450;" parent="1" vertex="1">
          <mxGeometry x="320.5" y="260" width="80" height="80" as="geometry" />
        </mxCell>
        <mxCell id="5tv7Jn4kMO8vfNmnEIEy-9" value="" style="endArrow=classic;html=1;rounded=0;exitX=0;exitY=0.5;exitDx=0;exitDy=0;entryX=0.5;entryY=0;entryDx=0;entryDy=0;" parent="1" source="5tv7Jn4kMO8vfNmnEIEy-7" target="T6qtZTFMgPrJZFWfyIdF-4" edge="1">
          <mxGeometry width="50" height="50" relative="1" as="geometry">
            <mxPoint x="320" y="370" as="sourcePoint" />
            <mxPoint x="370" y="320" as="targetPoint" />
          </mxGeometry>
        </mxCell>
        <mxCell id="5tv7Jn4kMO8vfNmnEIEy-10" value="" style="endArrow=classic;html=1;rounded=0;exitX=0.5;exitY=1;exitDx=0;exitDy=0;" parent="1" source="5tv7Jn4kMO8vfNmnEIEy-7" target="T6qtZTFMgPrJZFWfyIdF-23" edge="1">
          <mxGeometry width="50" height="50" relative="1" as="geometry">
            <mxPoint x="320" y="370" as="sourcePoint" />
            <mxPoint x="370" y="320" as="targetPoint" />
          </mxGeometry>
        </mxCell>
        <mxCell id="5tv7Jn4kMO8vfNmnEIEy-11" value="" style="endArrow=classic;html=1;rounded=0;exitX=1;exitY=0.5;exitDx=0;exitDy=0;entryX=0.5;entryY=0;entryDx=0;entryDy=0;" parent="1" source="5tv7Jn4kMO8vfNmnEIEy-7" target="T6qtZTFMgPrJZFWfyIdF-5" edge="1">
          <mxGeometry width="50" height="50" relative="1" as="geometry">
            <mxPoint x="371" y="350" as="sourcePoint" />
            <mxPoint x="371" y="410" as="targetPoint" />
          </mxGeometry>
        </mxCell>
        <mxCell id="5tv7Jn4kMO8vfNmnEIEy-12" value="1" style="text;html=1;align=center;verticalAlign=middle;whiteSpace=wrap;rounded=0;" parent="1" vertex="1">
          <mxGeometry x="270" y="280" width="60" height="30" as="geometry" />
        </mxCell>
        <mxCell id="5tv7Jn4kMO8vfNmnEIEy-13" value="*" style="text;html=1;align=center;verticalAlign=middle;whiteSpace=wrap;rounded=0;" parent="1" vertex="1">
          <mxGeometry x="185" y="380" width="60" height="30" as="geometry" />
        </mxCell>
        <mxCell id="5tv7Jn4kMO8vfNmnEIEy-14" value="1" style="text;html=1;align=center;verticalAlign=middle;whiteSpace=wrap;rounded=0;" parent="1" vertex="1">
          <mxGeometry x="360" y="340" width="60" height="30" as="geometry" />
        </mxCell>
        <mxCell id="5tv7Jn4kMO8vfNmnEIEy-15" value="0..1" style="text;html=1;align=center;verticalAlign=middle;whiteSpace=wrap;rounded=0;" parent="1" vertex="1">
          <mxGeometry x="300" y="380" width="60" height="30" as="geometry" />
        </mxCell>
        <mxCell id="5tv7Jn4kMO8vfNmnEIEy-16" value="IRI" style="ellipse;whiteSpace=wrap;html=1;aspect=fixed;fillColor=#dae8fc;strokeColor=#6c8ebf;" parent="1" vertex="1">
          <mxGeometry x="-135" y="290" width="80" height="80" as="geometry" />
        </mxCell>
        <mxCell id="5tv7Jn4kMO8vfNmnEIEy-17" value="xsd:string" style="ellipse;whiteSpace=wrap;html=1;aspect=fixed;fillColor=#dae8fc;strokeColor=#6c8ebf;" parent="1" vertex="1">
          <mxGeometry x="-135" y="495" width="80" height="80" as="geometry" />
        </mxCell>
        <mxCell id="5tv7Jn4kMO8vfNmnEIEy-18" value="&lt;b&gt;OR&lt;/b&gt;" style="rhombus;whiteSpace=wrap;html=1;flipH=1;" parent="1" vertex="1">
          <mxGeometry x="-25" y="400" width="80" height="80" as="geometry" />
        </mxCell>
        <mxCell id="5tv7Jn4kMO8vfNmnEIEy-19" value="&lt;h1 style=&quot;margin-top: 0px;&quot;&gt;&lt;span style=&quot;background-color: initial; font-size: 12px; font-weight: normal;&quot;&gt;MUST be a valid&amp;nbsp;&lt;/span&gt;&lt;span style=&quot;background-color: initial; font-size: 12px; font-weight: normal;&quot;&gt;URI Template&lt;/span&gt;&lt;/h1&gt;" style="text;html=1;whiteSpace=wrap;overflow=hidden;rounded=0;" parent="1" vertex="1">
          <mxGeometry x="-265" y="532.5" width="140" height="80" as="geometry" />
        </mxCell>
        <mxCell id="5tv7Jn4kMO8vfNmnEIEy-20" value="" style="endArrow=classic;html=1;rounded=0;entryX=1;entryY=1;entryDx=0;entryDy=0;exitX=0;exitY=0;exitDx=0;exitDy=0;" parent="1" source="5tv7Jn4kMO8vfNmnEIEy-18" target="5tv7Jn4kMO8vfNmnEIEy-16" edge="1">
          <mxGeometry width="50" height="50" relative="1" as="geometry">
            <mxPoint x="70" y="422.5" as="sourcePoint" />
            <mxPoint x="120" y="372.5" as="targetPoint" />
          </mxGeometry>
        </mxCell>
        <mxCell id="5tv7Jn4kMO8vfNmnEIEy-21" value="" style="endArrow=classic;html=1;rounded=0;exitX=0;exitY=1;exitDx=0;exitDy=0;entryX=1;entryY=0;entryDx=0;entryDy=0;" parent="1" source="5tv7Jn4kMO8vfNmnEIEy-18" target="5tv7Jn4kMO8vfNmnEIEy-17" edge="1">
          <mxGeometry width="50" height="50" relative="1" as="geometry">
            <mxPoint x="70" y="422.5" as="sourcePoint" />
            <mxPoint x="120" y="372.5" as="targetPoint" />
          </mxGeometry>
        </mxCell>
      </root>
    </mxGraphModel>
  </diagram>
</mxfile>
